REM MD5 9022ac49b9dd3da1a28c06a4ad6d49ae
FILE "Street Fighter Collection (Europe) (Disc 1).bin" BINARY
  TRACK 01 MODE2/2352
    INDEX 01 00:00:00
  TRACK 02 AUDIO
    INDEX 00 05:45:01
    INDEX 01 05:47:01
  TRACK 03 AUDIO
    INDEX 00 07:01:03
    INDEX 01 07:03:03
  TRACK 04 AUDIO
    INDEX 00 08:48:56
    INDEX 01 08:50:56
  TRACK 05 AUDIO
    INDEX 00 10:58:18
    INDEX 01 11:00:18
  TRACK 06 AUDIO
    INDEX 00 12:52:53
    INDEX 01 12:54:53
  TRACK 07 AUDIO
    INDEX 00 14:53:27
    INDEX 01 14:55:27
  TRACK 08 AUDIO
    INDEX 00 16:48:69
    INDEX 01 16:50:69
  TRACK 09 AUDIO
    INDEX 00 18:03:07
    INDEX 01 18:05:07
  TRACK 10 AUDIO
    INDEX 00 19:57:63
    INDEX 01 19:59:63
  TRACK 11 AUDIO
    INDEX 00 21:52:36
    INDEX 01 21:54:36
  TRACK 12 AUDIO
    INDEX 00 23:50:35
    INDEX 01 23:52:35
  TRACK 13 AUDIO
    INDEX 00 25:18:73
    INDEX 01 25:20:73
  TRACK 14 AUDIO
    INDEX 00 27:36:06
    INDEX 01 27:38:06
  TRACK 15 AUDIO
    INDEX 00 28:58:64
    INDEX 01 29:00:64
  TRACK 16 AUDIO
    INDEX 00 30:56:49
    INDEX 01 30:58:49
  TRACK 17 AUDIO
    INDEX 00 32:20:39
    INDEX 01 32:22:39
  TRACK 18 AUDIO
    INDEX 00 33:49:04
    INDEX 01 33:51:04
  TRACK 19 AUDIO
    INDEX 00 35:09:06
    INDEX 01 35:11:06
  TRACK 20 AUDIO
    INDEX 00 35:40:70
    INDEX 01 35:42:70
  TRACK 21 AUDIO
    INDEX 00 36:12:62
    INDEX 01 36:14:62
  TRACK 22 AUDIO
    INDEX 00 36:44:63
    INDEX 01 36:46:63
  TRACK 23 AUDIO
    INDEX 00 37:16:64
    INDEX 01 37:18:64
  TRACK 24 AUDIO
    INDEX 00 37:48:65
    INDEX 01 37:50:65
  TRACK 25 AUDIO
    INDEX 00 38:20:65
    INDEX 01 38:22:65
  TRACK 26 AUDIO
    INDEX 00 38:52:66
    INDEX 01 38:54:66
  TRACK 27 AUDIO
    INDEX 00 39:24:67
    INDEX 01 39:26:67
  TRACK 28 AUDIO
    INDEX 00 39:56:67
    INDEX 01 39:58:67
  TRACK 29 AUDIO
    INDEX 00 40:28:68
    INDEX 01 40:30:68
  TRACK 30 AUDIO
    INDEX 00 41:00:69
    INDEX 01 41:02:69
  TRACK 31 AUDIO
    INDEX 00 41:32:70
    INDEX 01 41:34:70
  TRACK 32 AUDIO
    INDEX 00 42:04:71
    INDEX 01 42:06:71
  TRACK 33 AUDIO
    INDEX 00 42:36:72
    INDEX 01 42:38:72
  TRACK 34 AUDIO
    INDEX 00 43:08:73
    INDEX 01 43:10:73
  TRACK 35 AUDIO
    INDEX 00 43:40:74
    INDEX 01 43:42:74
  TRACK 36 AUDIO
    INDEX 00 44:13:00
    INDEX 01 44:15:00
  TRACK 37 AUDIO
    INDEX 00 44:21:02
    INDEX 01 44:23:02
  TRACK 38 AUDIO
    INDEX 00 44:28:17
    INDEX 01 44:30:17
  TRACK 39 AUDIO
    INDEX 00 45:34:58
    INDEX 01 45:36:58
  TRACK 40 AUDIO
    INDEX 00 46:10:64
    INDEX 01 46:12:64
  TRACK 41 AUDIO
    INDEX 00 46:46:41
    INDEX 01 46:48:41
  TRACK 42 AUDIO
    INDEX 00 46:54:41
    INDEX 01 46:56:41
  TRACK 43 AUDIO
    INDEX 00 47:28:07
    INDEX 01 47:30:07
  TRACK 44 AUDIO
    INDEX 00 47:53:40
    INDEX 01 47:55:40
  TRACK 45 AUDIO
    INDEX 00 48:25:34
    INDEX 01 48:27:34
  TRACK 46 AUDIO
    INDEX 00 48:32:17
    INDEX 01 48:34:17
  TRACK 47 AUDIO
    INDEX 00 48:59:16
    INDEX 01 49:01:16
  TRACK 48 AUDIO
    INDEX 00 49:16:16
    INDEX 01 49:18:16
  TRACK 49 AUDIO
    INDEX 00 50:14:17
    INDEX 01 50:16:17
  TRACK 50 AUDIO
    INDEX 00 51:01:17
    INDEX 01 51:03:17
  TRACK 51 AUDIO
    INDEX 00 51:28:18
    INDEX 01 51:30:18
  TRACK 52 AUDIO
    INDEX 00 52:06:18
    INDEX 01 52:08:18
  TRACK 53 AUDIO
    INDEX 00 52:44:19
    INDEX 01 52:46:19
  TRACK 54 AUDIO
    INDEX 00 53:31:20
    INDEX 01 53:33:20
  TRACK 55 AUDIO
    INDEX 00 54:13:21
    INDEX 01 54:15:21
  TRACK 56 AUDIO
    INDEX 00 55:22:22
    INDEX 01 55:24:22
  TRACK 57 AUDIO
    INDEX 00 57:04:66
    INDEX 01 57:06:66
  TRACK 58 AUDIO
    INDEX 00 57:40:63
    INDEX 01 57:42:63
  TRACK 59 AUDIO
    INDEX 00 58:26:32
    INDEX 01 58:28:32
  TRACK 60 AUDIO
    INDEX 00 59:11:54
    INDEX 01 59:13:54
  TRACK 61 AUDIO
    INDEX 00 59:37:38
    INDEX 01 59:39:38
  TRACK 62 AUDIO
    INDEX 00 60:32:51
    INDEX 01 60:34:51
  TRACK 63 AUDIO
    INDEX 00 60:58:35
    INDEX 01 61:00:35
  TRACK 64 AUDIO
    INDEX 00 61:50:43
    INDEX 01 61:52:43
  TRACK 65 AUDIO
    INDEX 00 62:04:35
    INDEX 01 62:06:35
  TRACK 66 AUDIO
    INDEX 00 63:03:53
    INDEX 01 63:05:53
  TRACK 67 AUDIO
    INDEX 00 63:17:45
    INDEX 01 63:19:45
  TRACK 68 AUDIO
    INDEX 00 64:27:47
    INDEX 01 64:29:47
  TRACK 69 AUDIO
    INDEX 00 64:41:39
    INDEX 01 64:43:39
  TRACK 70 AUDIO
    INDEX 00 65:38:67
    INDEX 01 65:40:67
  TRACK 71 AUDIO
    INDEX 00 65:52:59
    INDEX 01 65:54:59
  TRACK 72 AUDIO
    INDEX 00 66:48:09
    INDEX 01 66:50:09
REM LEADOUT 70:20:09
